<svg width="500" height="500" version="1.1" viewBox="0 0 500 500" xmlns="http://www.w3.org/2000/svg"><path d="m0 0v420a80 80 0 0 0 80 80h340a80 80 0 0 0 80-80v-340a80 80 0 0 0-80-80zm255.6 224.2c18.3-0.2007 36.6 5.675 46.75 17.98 12.51 12.68 17.98 37.64 16.92 60.6h-43.56c0.3705-9.44-0.5205-24.66-4.186-30.22-2.568-4.7-7.43-7.055-14.58-7.055-12.74 0-19.1 7.61-19.1 22.83 0.1365 16.16 6.435 22.79 21.11 29.54 19 7.385 43.18 20 51.95 35.26 26.13 46.5 8.205 117.6-55.95 114.8l6e-3 0.0127c-46.26 0.637-66.95-32.28-65.7-76.9h45.24c-1.254 19.45 5.425 37.16 21.44 35.92 7.145 0 12.18-2.236 15.08-6.715 5.525-8.185 6.56-31.82-1.339-40.96-5.52-8.805-25.37-16.58-35.86-21.82-14.97-7.165-25.74-15.66-32.34-25.52-14.86-21.86-13.48-69.85 7.37-89.3 10.14-12 28.44-18.28 46.74-18.48zm146.1 0c18.3-0.2007 36.6 5.675 46.75 17.98 12.51 12.68 17.98 37.64 16.92 60.6h-43.56c0.3705-9.44-0.5205-24.66-4.186-30.22-2.568-4.7-7.43-7.055-14.57-7.055-12.74 0-19.1 7.61-19.1 22.83 0.1365 16.16 6.435 22.79 21.11 29.54 19 7.385 43.18 20 51.95 35.26 26.13 46.5 8.205 117.6-55.95 114.8l7e-3 0.0127c-46.26 0.637-66.95-32.28-65.7-76.9h45.24c-1.255 19.45 5.425 37.16 21.44 35.92 7.145 0 12.18-2.236 15.08-6.715 5.525-8.185 6.56-31.82-1.34-40.96-5.52-8.805-25.37-16.58-35.86-21.82-14.97-7.165-25.74-15.66-32.34-25.52-14.86-21.86-13.49-69.85 7.37-89.3 10.14-12 28.44-18.28 46.74-18.48zm-296.8 0.3418c19.09-0.1268 38.12 5.515 49.42 17.47 13.92 12.28 19.18 37.36 17.93 60.75h-47.92c0.364-9.195-0.1242-23.12-5.53-28.37-7.025-9.51-25.58-8.39-30.49 1.508-3.016 5.37-4.524 13.32-4.524 23.84v95c0 19.92 6.925 30 20.78 30.22 6.475 0 11.4-2.353 14.74-7.055 4.674-5.575 5.4-17.92 5.025-26.86h47.92c3.276 45.54-23.6 77.45-69.35 76.9-41.75-0.039-67.5-23.55-67-66.8v-109.4c0-21.93 6.42-38.61 19.26-50 11.54-11.11 30.68-17 49.77-17.14z" /></svg>
