<?xml version="1.0" encoding="UTF-8" standalone="no"?>
<!-- Created with Inkscape (http://www.inkscape.org/) -->

<svg
   width="93.290756mm"
   height="87.60791mm"
   viewBox="0 0 93.290756 87.60791"
   version="1.1"
   id="svg1"
   xml:space="preserve"
   inkscape:version="1.4 (e7c3feb1, 2024-10-09)"
   sodipodi:docname="zsh-inspired-logo.svg"
   xmlns:inkscape="http://www.inkscape.org/namespaces/inkscape"
   xmlns:sodipodi="http://sodipodi.sourceforge.net/DTD/sodipodi-0.dtd"
   xmlns="http://www.w3.org/2000/svg"
   xmlns:svg="http://www.w3.org/2000/svg"><sodipodi:namedview
     id="namedview1"
     pagecolor="#ffffff"
     bordercolor="#000000"
     borderopacity="0.25"
     inkscape:showpageshadow="2"
     inkscape:pageopacity="0.0"
     inkscape:pagecheckerboard="0"
     inkscape:deskcolor="#d1d1d1"
     inkscape:document-units="mm"
     inkscape:zoom="1.7959596"
     inkscape:cx="150.89426"
     inkscape:cy="206.018"
     inkscape:window-width="1920"
     inkscape:window-height="1080"
     inkscape:window-x="0"
     inkscape:window-y="31"
     inkscape:window-maximized="0"
     inkscape:current-layer="layer1" /><defs
     id="defs1" /><g
     inkscape:label="Layer 1"
     inkscape:groupmode="layer"
     id="layer1"
     transform="translate(-18.392397,-48.947918)"><path
       style="display:inline;fill:#000000;stroke-width:1.96488"
       d="m 63.171901,134.92918 -1.349014,-1.59581 v -4.73849 -4.7385 l 5.699951,-20.00107 c 3.134975,-11.000618 5.699954,-20.355061 5.699954,-20.787736 v -0.786599 h -4.194175 -4.194176 l -0.957704,-0.717109 c -2.813274,-2.106472 -2.813274,-7.554702 0,-9.66117 l 0.957704,-0.717095 h 7.681208 7.681206 l 1.087142,0.696356 c 3.053759,1.956087 3.180968,1.191406 -4.935181,29.665363 -3.648528,12.80014 -6.633688,23.41011 -6.633688,23.57766 0,0.16738 2.481503,0.30465 5.514451,0.30465 h 5.514453 l 1.281648,1.80182 1.28164,1.80183 v 2.11484 2.1148 l -1.075209,1.63106 -1.07521,1.63101 h -8.317992 -8.317992 z"
       id="path4"
       sodipodi:nodetypes="ccccsscccsscccsssscccccccccc" /><path
       style="display:inline;fill:#000000"
       d="m 29.104166,136.1532 c -3.94069,-0.97348 -7.292802,-3.66536 -9.152867,-7.35013 -1.609127,-3.18766 -1.554569,-1.93403 -1.558848,-35.819579 -0.0026,-20.969627 0.08802,-31.480878 0.280703,-32.543751 0.983616,-5.425702 5.781507,-10.223592 11.207209,-11.207209 1.066865,-0.19341 12.393228,-0.284613 35.345698,-0.284613 32.826574,0 33.833469,0.01476 35.829609,0.525289 4.89338,1.251515 8.70876,4.979624 10.02272,9.793461 0.34066,1.248026 0.41885,6.653786 0.54922,37.969005 0.10243,24.604447 0.0635,36.834437 -0.11944,37.496887 -0.49977,1.81003 -2.55513,2.42266 -3.83478,1.14301 -0.64312,-0.64312 -0.64947,-0.69773 -0.65348,-5.6224 -0.002,-2.73513 -0.10237,-5.12796 -0.22253,-5.31741 -0.15172,-0.23919 -0.73662,-0.32004 -1.91418,-0.26458 l -1.6957,0.0799 -0.14646,5.29167 c -0.0806,2.91042 -0.16985,5.31679 -0.19844,5.34751 -1.27575,1.37059 -2.7475,1.54684 -3.776167,0.45222 L 98.425,135.15988 98.34414,123.20859 c -0.05482,-8.10284 0.01235,-12.2703 0.208597,-12.94194 0.536844,-1.8373 2.797633,-2.29596 3.970083,-0.80544 0.48931,0.62206 0.53239,1.0677 0.53239,5.50762 0,5.43917 -0.11867,5.15201 2.129,5.15201 1.00654,0 1.35247,-0.11307 1.56586,-0.51178 0.1831,-0.34213 0.27389,-8.57542 0.27389,-24.838434 0,-20.154761 -0.0615,-24.377737 -0.35884,-24.624471 -0.26331,-0.218528 -11.409521,-0.279978 -41.870307,-0.230834 l -41.511478,0.06697 v 27.516667 27.516672 l 0.739328,1.50552 c 0.951792,1.93817 3.154697,3.96855 5.092315,4.69351 1.423418,0.53256 0.964581,5.17949 -0.01081,4.93854 z M 106.8252,62.850708 c -0.11552,-3.657731 -2.06508,-6.676294 -5.35571,-8.292426 L 100.0125,53.84271 H 65.0875 30.162499 l -1.486961,0.69722 c -2.080238,0.975402 -3.525898,2.37981 -4.512358,4.383595 -0.691596,1.40483 -0.866274,2.120574 -0.961827,3.941096 l -0.116757,2.224517 41.903536,-0.06696 41.903538,-0.06696 z M 86.705771,135.99785 c -1.521548,-0.69056 -1.896751,-3.41464 -2.359712,-5.28873 -0.188325,-0.76235 -0.429192,-1.61604 -0.152306,-2.35087 0.139362,-0.36985 0.838428,-0.83843 0.838428,-0.83843 0.677251,-0.67725 0.977022,-0.80563 1.559374,-0.66784 1.065821,0.25219 1.548815,0.99096 1.746276,2.67105 0.262842,2.23637 0.477473,2.50406 2.007788,2.50406 1.910284,0 2.126256,-0.33393 2.126256,-3.28756 0,-2.91963 -0.180463,-3.20186 -3.057716,-4.78199 -4.295911,-2.35923 -4.461931,-2.64887 -4.47396,-7.80546 -0.008,-3.40923 0.05607,-3.97728 0.574947,-5.10105 0.824265,-1.78518 2.018197,-2.29566 5.369229,-2.29566 4.559189,0 5.803498,1.16819 5.815023,5.45928 0.0054,2.02553 -0.03868,2.19861 -0.691329,2.71198 -1.555305,1.2234 -3.27161,0.0843 -3.27161,-2.17135 0,-1.14067 -0.680496,-1.7782 -1.898056,-1.7782 -1.460177,0 -1.806111,0.5942 -1.806111,3.10228 0,2.11376 0.0092,2.14261 0.938747,2.9588 0.516311,0.45333 1.748146,1.23184 2.737411,1.73003 2.381261,1.19918 3.39454,2.08979 3.722959,3.27226 0.360169,1.29677 0.348859,7.08143 -0.01718,8.78822 -0.357101,1.66511 -1.509292,3.05434 -2.839639,3.42385 -1.702732,0.47293 -5.582609,0.32908 -6.868817,-0.25467 z M 49,93.021753 c 3.804383,-0.001 7.608643,7.6e-4 11.413025,0 0,0.01835 0.02673,0.918393 0.02673,0.978247 H 49.000001 Z"
       id="path1"
       sodipodi:nodetypes="ssccssssscscsccccscssssssssscccsssssscccssscccssaasssssscsscsssssssssssccccc" /><path
       id="path2"
       style="display:inline;fill:#000000;fill-rule:evenodd;stroke-width:0.264583;fill-opacity:1"
       d="m 31.714237,75.233063 a 4,4 0 0 0 -4.000274,4.000273 4,4 0 0 0 4.000274,3.999756 4,4 0 0 0 3.999755,-3.999756 4,4 0 0 0 -3.999755,-4.000273 z m 0,0.999939 a 3,3 0 0 1 2.999817,3.000334 3,3 0 0 1 -2.999817,2.999817 3,3 0 0 1 -3.000335,-2.999817 3,3 0 0 1 3.000335,-3.000334 z" /><path
       id="path2-8"
       style="display:inline;fill:#000000;fill-rule:evenodd;stroke-width:0.264583;fill-opacity:1"
       d="m 39.233973,85.621165 a 4,4 0 0 0 -4.000274,4.000273 4,4 0 0 0 4.000274,3.999756 4,4 0 0 0 3.999755,-3.999756 4,4 0 0 0 -3.999755,-4.000273 z m 0,0.999939 a 3,3 0 0 1 2.999817,3.000334 3,3 0 0 1 -2.999817,2.999817 3,3 0 0 1 -3.000335,-2.999817 3,3 0 0 1 3.000335,-3.000334 z" /><path
       style="display:inline;fill:#000000;stroke-width:0.810794"
       d="m 27.13178,93.389856 c 5.161506,-6.09112 10.325867,-12.180842 15.487688,-18.271835 0.01973,0.0078 1.02362,0.349171 1.087968,0.374716 l -15.52396,18.314627 z"
       id="path3"
       sodipodi:nodetypes="ccccc" /></g></svg>
