<svg width="816" height="816" version="1.1" viewBox="0 0 816 816" xmlns="http://www.w3.org/2000/svg"><path d="m403.7 213.9a16.07 16.07 0 0 0-13.02 5.723l-298.5 355.5a16.07 16.07 0 0 0 1.973 22.64 16.07 16.07 0 0 0 22.64-1.973l298.5-355.5a16.07 16.07 0 0 0-1.973-22.64 16.07 16.07 0 0 0-7.539-3.52 16.07 16.07 0 0 0-2.09-0.2305zm-223.5 9.059c-47.59 0-86.72 39.12-86.72 86.72s39.12 86.71 86.72 86.71 86.71-39.12 86.71-86.71-39.12-86.72-86.71-86.72zm0 50.2c20.46 0 36.51 16.05 36.51 36.51s-16.05 36.51-36.51 36.51-36.51-16.05-36.51-36.51 16.05-36.51 36.51-36.51zm146 146.1c-47.59 0-86.72 39.12-86.72 86.72s39.12 86.71 86.72 86.71c47.59 0 86.71-39.12 86.71-86.71s-39.12-86.72-86.71-86.72zm0 50.2c20.46 0 36.51 16.05 36.51 36.51s-16.05 36.51-36.51 36.51c-20.46 0-36.51-16.05-36.51-36.51s16.05-36.51 36.51-36.51zm200.2 91.08a16.07 16.07 0 0 0-16.07 16.07 16.07 16.07 0 0 0 16.07 16.07h213.2a16.07 16.07 0 0 0 16.07-16.07 16.07 16.07 0 0 0-16.07-16.07h-213.2z"/></svg>
